<svg width="24.000000" height="24.000000" viewBox="0 0 24 24" fill="none" xmlns="http://www.w3.org/2000/svg" xmlns:xlink="http://www.w3.org/1999/xlink">

	<defs>
		<clipPath id="clip6_249">
			<rect id="Frame" width="24.000000" height="24.000000" fill="white" fill-opacity="0"/>
		</clipPath>
	</defs>
	<rect id="Frame" width="24.000000" height="24.000000" fill="#FFFFFF" fill-opacity="0"/>
	<g clip-path="url(#clip6_249)">
		<path id="Vector" d="M20 2L4 2C2.9 2 2 2.89 2 4L2 20C2 21.1 2.9 22 4 22L20 22C21.1 22 22 21.1 22 20L22 4C22 2.89 21.1 2 20 2ZM8 20L5 20C4.44 20 4 19.54 4 19L4 16L8 16L8 20ZM8 14L4 14L4 10L8 10L8 14ZM8 8L4 8L4 5C4 4.45 4.44 4 5 4L8 4L8 8ZM14 20L10 20L10 16L14 16L14 20ZM14 14L10 14L10 10L14 10L14 14ZM14 8L10 8L10 4L14 4L14 8ZM19 20L16 20L16 16L20 16L20 19C20 19.54 19.54 20 19 20ZM20 14L16 14L16 10L20 10L20 14ZM20 8L16 8L16 4L19 4C19.54 4 20 4.45 20 5L20 8Z" fill="#6750A4" fill-opacity="1.000000" fill-rule="nonzero"/>
	</g>
</svg>
