<svg width="24.000000" height="24.000000" viewBox="0 0 24 24" fill="none" xmlns="http://www.w3.org/2000/svg" xmlns:xlink="http://www.w3.org/1999/xlink">

	<defs>
		<clipPath id="clip6_4">
			<rect id="Frame" width="24.000000" height="24.000000" fill="white" fill-opacity="0"/>
		</clipPath>
	</defs>
	<rect id="Frame" width="24.000000" height="24.000000" fill="#FFFFFF" fill-opacity="0"/>
	<g clip-path="url(#clip6_4)">
		<path id="Vector" d="M4 14L6 14C6.54 14 7 13.55 7 13L7 11C7 10.45 6.54 10 6 10L4 10C3.45 10 3 10.45 3 11L3 13C3 13.55 3.45 14 4 14ZM4 19L6 19C6.54 19 7 18.54 7 18L7 16C7 15.45 6.54 15 6 15L4 15C3.45 15 3 15.45 3 16L3 18C3 18.54 3.45 19 4 19ZM4 9L6 9C6.54 9 7 8.54 7 8L7 6C7 5.45 6.54 5 6 5L4 5C3.45 5 3 5.45 3 6L3 8C3 8.54 3.45 9 4 9ZM9 14L20 14C20.55 14 21 13.55 21 13L21 11C21 10.45 20.55 10 20 10L9 10C8.45 10 8 10.45 8 11L8 13C8 13.55 8.45 14 9 14ZM9 19L20 19C20.55 19 21 18.54 21 18L21 16C21 15.45 20.55 15 20 15L9 15C8.45 15 8 15.45 8 16L8 18C8 18.54 8.45 19 9 19ZM8 6L8 8C8 8.54 8.45 9 9 9L20 9C20.55 9 21 8.54 21 8L21 6C21 5.45 20.55 5 20 5L9 5C8.45 5 8 5.45 8 6Z" fill="#6750A4" fill-opacity="1.000000" fill-rule="nonzero"/>
	</g>
</svg>
