<svg width="36.000000" height="36.000000" viewBox="0 0 36 36" fill="none" xmlns="http://www.w3.org/2000/svg" xmlns:xlink="http://www.w3.org/1999/xlink">
	<defs/>
	<path id="icon" d="M22.14 19.9L30.73 28.5L28.5 30.73L19.9 22.14C18.29 23.29 16.36 24 14.25 24C8.86 24 4.5 19.63 4.5 14.25C4.5 8.86 8.86 4.5 14.25 4.5C19.63 4.5 24 8.86 24 14.25C24 16.36 23.29 18.29 22.14 19.9ZM14.25 7.5C10.51 7.5 7.5 10.51 7.5 14.25C7.5 17.98 10.51 21 14.25 21C17.98 21 21 17.98 21 14.25C21 10.51 17.98 7.5 14.25 7.5Z" fill="#49454F" fill-opacity="1.000000" fill-rule="evenodd"/>
</svg>
