<svg width="36.000000" height="36.000000" viewBox="0 0 36 36" fill="none" xmlns="http://www.w3.org/2000/svg" xmlns:xlink="http://www.w3.org/1999/xlink">

	<defs/>
	<path id="icon" d="M18 3C9.7 3 3 9.7 3 18C3 26.29 9.7 33 18 33C26.29 33 33 26.29 33 18C33 9.7 26.29 3 18 3ZM18 30C11.38 30 6 24.61 6 18C6 11.38 11.38 6 18 6C24.61 6 30 11.38 30 18C30 24.61 24.61 30 18 30ZM18 15.88L23.38 10.5L25.5 12.61L20.11 18L25.5 23.38L23.38 25.5L18 20.11L12.61 25.5L10.5 23.38L15.88 18L10.5 12.61L12.61 10.5L18 15.88Z" fill="#49454F" fill-opacity="1.000000" fill-rule="evenodd"/>
</svg>
